<?xml version="1.0" encoding="UTF-8"?>
<svg id="Camada_2" data-name="Camada 2" xmlns="http://www.w3.org/2000/svg" viewBox="0 0 758.22 758.22">
  <defs>
    <style>
      .cls-1 {
        fill: #fff;
      }
    </style>
  </defs>
  <g id="Camada_1-2" data-name="Camada 1">
    <g>
      <polygon class="cls-1" points="359.92 185.36 364.42 180.88 359.92 185.38 359.92 185.36"/>
      <polygon class="cls-1" points="406.24 139.06 406.24 139.08 406.22 139.06 406.24 139.06"/>
      <polygon class="cls-1" points="420.91 153.74 420.91 153.75 406.24 139.08 420.91 153.74"/>
      <polygon class="cls-1" points="379.1 195.55 398.29 214.73 398.29 214.74 379.1 195.55"/>
      <polygon class="cls-1" points="406.62 222.3 406.24 222.68 406.24 222.7 406.22 222.68 405.84 222.3 406.62 222.3"/>
      <path class="cls-1" d="M486.06,315.8h-40.19c-1.31,0-2.59-.53-3.52-1.48l-35.56-35.94c-3.14-3.17-8.5-.93-8.5,3.55v399.19c-.31.02-.61.04-.92.06-5.94.36-12.09.55-18.27.55s-12.31-.19-18.28-.55c-.3-.02-.59-.04-.89-.06v-399.19c0-4.48-5.36-6.72-8.5-3.55l-35.56,35.94c-.93.95-2.21,1.48-3.52,1.48h-40.19c-4.43,0-6.66-5.41-3.52-8.6l106.94-108.1c1.94-1.96,5.1-1.96,7.04,0l23.23,23.47.38.4,38.61,39.03,44.74,45.2c3.14,3.19.91,8.6-3.52,8.6Z"/>
      <g>
        <path class="cls-1" d="M212,503.14v128.31c-2.37-1.57-4.71-3.17-7.04-4.81-.23-.16-.45-.32-.68-.48-1.06-.75-2.11-1.51-3.16-2.27-.06-.04-.11-.08-.17-.13-.99-.72-1.97-1.44-2.95-2.18-1.23-.92-2.46-1.85-3.67-2.79-.51-.39-1.01-.78-1.51-1.18-2.19-1.7-4.36-3.45-6.5-5.23-1-.81-1.99-1.64-2.97-2.48-3.31-2.81-6.54-5.68-9.71-8.61v-98.15c0-4.28,3.47-7.75,7.75-7.75h22.86c4.28,0,7.75,3.47,7.75,7.75Z"/>
        <path class="cls-1" d="M584.58,503.14v98.14c-3.17,2.93-6.4,5.8-9.71,8.61-1.19,1.01-2.4,2.02-3.61,3.01-.98.81-1.96,1.61-2.95,2.4-.3.24-.59.48-.88.7-.85.68-1.7,1.35-2.55,2.01-4.9,3.82-9.91,7.48-15.01,10.97-1.09.75-2.18,1.49-3.28,2.22-.13.09-.25.17-.37.25v-128.31c0-4.28,3.47-7.75,7.75-7.75h22.86c4.29,0,7.75,3.47,7.75,7.75Z"/>
      </g>
      <g>
        <path class="cls-1" d="M305.33,417.18v255.49c-11.16-2.78-22.27-6.26-33.07-10.33-1.77-.67-3.54-1.36-5.3-2.07v-243.09c0-4.28,3.47-7.75,7.76-7.75h22.86c4.28,0,7.75,3.47,7.75,7.75Z"/>
        <path class="cls-1" d="M491.26,417.18v243.09c-1.75.71-3.51,1.39-5.28,2.06-10.8,4.06-21.91,7.53-33.09,10.32v-255.47c0-4.28,3.47-7.75,7.75-7.75h22.86c4.29,0,7.76,3.47,7.76,7.75Z"/>
      </g>
      <path class="cls-1" d="M647.17,111.06c-22.74-22.78-48.23-42.57-75.74-58.82-11.87-7.03-24.4-13.52-37.26-19.29-7.2-3.23-14.5-6.23-21.67-8.91-14.13-5.29-28.68-9.77-43.23-13.29-29.3-7.13-59.63-10.75-90.17-10.75s-60.87,3.62-90.15,10.74c-14.59,3.54-29.14,8.01-43.21,13.3-7.17,2.67-14.47,5.67-21.69,8.91-12.77,5.72-25.31,12.21-37.23,19.28-27.43,16.17-52.93,35.96-75.79,58.82C39.43,182.64,0,277.84,0,379.11s39.43,196.47,111.03,268.06c16.65,16.67,34.86,31.82,54.12,45.04,12.84,8.81,26.29,16.87,39.95,23.92,47.86,24.78,99.7,38.77,154.05,41.57,6.65.35,13.37.52,19.95.52s13.32-.17,19.96-.52c54.34-2.8,106.18-16.79,154.04-41.58,13.7-7.07,27.15-15.13,39.96-23.93,19.22-13.17,37.42-28.32,54.11-45.01,71.61-71.61,111.05-166.81,111.05-268.07s-39.44-196.46-111.05-268.05ZM584.58,621.32c-12.05,10.24-24.86,19.59-38.36,27.94-17.28,10.72-35.67,19.82-54.96,27.11-12.44,4.68-25.24,8.61-38.37,11.73-17.66,4.22-35.92,6.94-54.6,8.05-6.34.39-12.75.58-19.19.58s-12.83-.19-19.17-.58c-18.68-1.11-36.92-3.83-54.6-8.03-13.12-3.12-25.93-7.06-38.37-11.75-19.29-7.28-37.68-16.39-54.96-27.1-13.5-8.36-26.33-17.71-38.36-27.94-68.61-58.26-112.16-145.15-112.16-242.22,0-120.96,67.63-226.15,167.14-279.78,11.97-6.44,24.38-12.14,37.22-17.03,7.18-2.76,14.49-5.25,21.91-7.46,14.39-4.33,29.2-7.65,44.36-9.89,9.14-1.36,18.42-2.33,27.82-2.87,6.34-.39,12.73-.59,19.17-.59s12.85.2,19.19.59c9.38.54,18.66,1.51,27.81,2.87,15.17,2.26,29.98,5.58,44.37,9.89,7.42,2.21,14.73,4.7,21.9,7.46,12.83,4.88,25.25,10.59,37.22,17.04,99.52,53.62,167.15,158.81,167.15,279.77,0,97.07-43.55,183.96-112.16,242.21Z"/>
      <path class="cls-1" d="M364.42,180.88l-4.5,4.48v.02l-35.46,35.46c-.93.93-2.2,1.46-3.52,1.46h-40.18c-4.44,0-6.66-5.37-3.52-8.5l32.93-32.92,3.19-3.2,23.94-23.92v-.02l38.28-38.28c1.94-1.94,5.1-1.94,7.04,0l15.67,15.67,7.94,7.94.02.02,14.68,14.68,23.92,23.92,3.2,3.19v.02l32.93,32.92c3.14,3.14.92,8.5-3.52,8.5h-40.18c-1.32,0-2.59-.52-3.52-1.46l-35.46-35.46-4.5-4.5-14.68-14.67-.02-.02-14.67,14.67"/>
    </g>
  </g>
</svg>