<?xml version="1.0" encoding="UTF-8"?>
<svg id="Camada_2" data-name="Camada 2" xmlns="http://www.w3.org/2000/svg" viewBox="0 0 1610.79 362.21">
  <defs>
    <style>
      .cls-1 {
        fill: #757cff;
      }
    </style>
  </defs>
  <g id="Camada_1-2" data-name="Camada 1">
    <g>
      <path class="cls-1" d="M501.9,1.36c-73.93,0-137.59,44.67-165.44,108.45-4.93,11.28-8.73,23.16-11.28,35.51-2.42,11.79-3.71,23.97-3.71,36.47s1.28,24.68,3.71,36.47c2.54,12.34,6.35,24.23,11.28,35.51,27.86,63.78,91.51,108.45,165.44,108.45,99.48,0,180.41-80.93,180.41-180.43S601.38,1.36,501.9,1.36ZM501.9,289.27c-59.36,0-107.48-48.12-107.48-107.48s48.12-107.48,107.48-107.48,107.46,48.12,107.46,107.48-48.1,107.48-107.46,107.48Z"/>
      <path class="cls-1" d="M1610.79,183.08v171.3c0,4.32-3.51,7.83-7.83,7.83h-56.76c-4.32,0-7.83-3.51-7.83-7.83v-171.3c0-31.9-14.01-60.56-36.21-80.09-10.45-9.22-22.72-16.42-36.21-21-19.62-6.64-41.77-7.74-64.69-1.43-34.79,9.58-62.27,36.98-72,71.73-20.2,72.13,33.47,137.5,102.4,137.5,3.3,0,6.56-.15,9.78-.44,13.19-1.2,24.51,9.32,24.51,22.56v40.4c0,3.87-2.82,7.16-6.64,7.75-22.47,3.51-46.32,2.8-70.63-2.91-65.06-15.28-116.2-66.55-131.24-131.66-27.05-117.09,61.61-221.55,174.23-221.55,25.01,0,48.85,5.17,70.5,14.48,12.92,5.54,25.07,12.57,36.21,20.86,43.92,32.69,72.42,84.96,72.42,143.78Z"/>
      <path class="cls-1" d="M1180.47,183.08v171.3c0,4.33-3.52,7.83-7.83,7.83h-56.76c-4.33,0-7.83-3.5-7.83-7.83v-171.3c0-12.08-2-23.68-5.7-34.51-10.47-30.61-34.45-54.96-64.81-65.9-10.35-3.74-21.43-5.91-32.98-6.26-1.08-.02-2.15-.04-3.23-.04h-69.19c-12.64.02-24.8,2.25-36.03,6.3-30.36,10.96-54.31,35.29-64.77,65.9-3.72,10.82-5.72,22.43-5.72,34.51v171.3c0,4.33-3.52,7.83-7.83,7.83h-56.76c-4.33,0-7.83-3.5-7.83-7.83v-171.3c0-86.35,61.44-158.66,142.9-175.45,11.65-2.39,23.68-3.66,36.03-3.68h69.19c1.08,0,2.15,0,3.23.04,11.27.2,22.29,1.45,32.98,3.64,81.48,16.79,142.92,89.09,142.92,175.45Z"/>
      <path class="cls-1" d="M946.3,148.79h41.1c8.65,0,15.66,7.01,15.66,15.66v189.93c0,4.32-3.51,7.83-7.83,7.83h-56.76c-4.32,0-7.83-3.51-7.83-7.83v-189.93c0-8.65,7.01-15.66,15.66-15.66Z"/>
      <path class="cls-1" d="M271.92,220.76c-2.45-10.28-5.74-19.36-9.9-27.28-4.17-7.91-8.94-14.68-14.33-20.34-5.38-5.64-11.06-10.3-17.03-14.01-5.95-3.7-11.94-6.44-17.97-8.2-6.03-1.76-11.74-2.74-17.13-2.92h-115.38c-9.49,0-16.89-3.66-22.21-10.98-5.32-7.32-7.99-17.3-7.99-29.93s2.66-22.49,7.99-30.06c5.32-7.57,12.72-11.35,22.21-11.35h162.38c4.32,0,7.83-3.51,7.83-7.83V7.83c0-4.32-3.51-7.83-7.83-7.83H80.19c-8.08,0-16.79,1.9-26.15,5.7-9.36,3.78-18.05,9.92-26.07,18.44-8,8.49-14.68,19.53-19.98,33.08C2.66,70.77,0,87.39,0,107.1s2.66,36.37,7.99,50.01c5.3,13.64,11.98,24.66,19.98,33.1,8.02,8.42,16.72,14.52,26.07,18.3,9.36,3.8,18.07,5.7,26.15,5.7h115.01c4.6,0,8.81,1,12.59,3.01,3.78,2.04,6.99,4.89,9.63,8.59,2.62,3.7,4.64,8.08,6.05,13.13,1.41,5.05,2.11,10.61,2.11,16.68,0,12.47-2.66,22.39-7.99,29.81-5.32,7.4-12.78,11.1-22.39,11.1H10.14c-4.32,0-7.83,3.51-7.83,7.83v50.03c0,4.32,3.51,7.83,7.83,7.83h185.06c5.38,0,11.12-.84,17.2-2.52,6.09-1.68,12.08-4.31,17.99-7.83,5.89-3.54,11.59-8.08,17.11-13.64,5.52-5.56,10.31-12.29,14.42-20.22,4.11-7.91,7.4-17.05,9.9-27.4,2.51-10.35,3.76-22.02,3.76-34.98s-1.23-24.58-3.66-34.86Z"/>
    </g>
  </g>
</svg>